<svg width="164" height="41" viewBox="0 0 164 41" fill="none" xmlns="http://www.w3.org/2000/svg">
<defs>
<linearGradient id="paint0_linear_149_462" x1="44" y1="0" x2="165.482" y2="18.7537" gradientUnits="userSpaceOnUse">
<stop stop-color="#8807EE"/>
<stop offset="0.328125" stop-color="#EF11B1"/>
<stop offset="0.661458" stop-color="#EF1111"/>
<stop offset="1" stop-color="#EF8911"/>
</linearGradient>
<linearGradient id="paint1_linear_149_462" x1="35.25" y1="2.25" x2="0.0241687" y2="4.01457" gradientUnits="userSpaceOnUse">
<stop stop-color="#8807EE"/>
<stop offset="0.328125" stop-color="#EF11B1"/>
<stop offset="0.661458" stop-color="#EF1111"/>
<stop offset="1" stop-color="#EF8911"/>
</linearGradient>
<linearGradient id="paint2_linear_149_462" x1="35.25" y1="2.25" x2="0.0241687" y2="4.01457" gradientUnits="userSpaceOnUse">
<stop stop-color="#8807EE"/>
<stop offset="0.328125" stop-color="#EF11B1"/>
<stop offset="0.661458" stop-color="#EF1111"/>
<stop offset="1" stop-color="#EF8911"/>
</linearGradient>
<linearGradient id="paint3_linear_149_462" x1="35.25" y1="2.25" x2="0.0241687" y2="4.01457" gradientUnits="userSpaceOnUse">
<stop stop-color="#8807EE"/>
<stop offset="0.328125" stop-color="#EF11B1"/>
<stop offset="0.661458" stop-color="#EF1111"/>
<stop offset="1" stop-color="#EF8911"/>
</linearGradient>
<linearGradient id="paint4_linear_149_462" x1="35.25" y1="2.25" x2="0.0241687" y2="4.01457" gradientUnits="userSpaceOnUse">
<stop stop-color="#8807EE"/>
<stop offset="0.328125" stop-color="#EF11B1"/>
<stop offset="0.661458" stop-color="#EF1111"/>
<stop offset="1" stop-color="#EF8911"/>
</linearGradient>
<linearGradient id="paint5_linear_149_462" x1="35.25" y1="2.25" x2="0.0241687" y2="4.01457" gradientUnits="userSpaceOnUse">
<stop stop-color="#8807EE"/>
<stop offset="0.328125" stop-color="#EF11B1"/>
<stop offset="0.661458" stop-color="#EF1111"/>
<stop offset="1" stop-color="#EF8911"/>
</linearGradient>
<linearGradient id="paint6_linear_149_462" x1="35.25" y1="2.25" x2="0.0241687" y2="4.01457" gradientUnits="userSpaceOnUse">
<stop stop-color="#8807EE"/>
<stop offset="0.328125" stop-color="#EF11B1"/>
<stop offset="0.661458" stop-color="#EF1111"/>
<stop offset="1" stop-color="#EF8911"/>
</linearGradient>
<linearGradient id="paint7_linear_149_462" x1="35.25" y1="2.25" x2="0.0241687" y2="4.01457" gradientUnits="userSpaceOnUse">
<stop stop-color="#8807EE"/>
<stop offset="0.328125" stop-color="#EF11B1"/>
<stop offset="0.661458" stop-color="#EF1111"/>
<stop offset="1" stop-color="#EF8911"/>
</linearGradient>
<linearGradient id="paint8_linear_149_462" x1="35.25" y1="2.25" x2="0.0241687" y2="4.01457" gradientUnits="userSpaceOnUse">
<stop stop-color="#8807EE"/>
<stop offset="0.328125" stop-color="#EF11B1"/>
<stop offset="0.661458" stop-color="#EF1111"/>
<stop offset="1" stop-color="#EF8911"/>
</linearGradient>
<linearGradient id="paint9_linear_149_462" x1="35.25" y1="2.25" x2="0.0241687" y2="4.01457" gradientUnits="userSpaceOnUse">
<stop stop-color="#8807EE"/>
<stop offset="0.328125" stop-color="#EF11B1"/>
<stop offset="0.661458" stop-color="#EF1111"/>
<stop offset="1" stop-color="#EF8911"/>
</linearGradient>
<linearGradient id="paint10_linear_149_462" x1="35.25" y1="2.25" x2="0.0241687" y2="4.01457" gradientUnits="userSpaceOnUse">
<stop stop-color="#8807EE"/>
<stop offset="0.328125" stop-color="#EF11B1"/>
<stop offset="0.661458" stop-color="#EF1111"/>
<stop offset="1" stop-color="#EF8911"/>
</linearGradient>
<linearGradient id="paint11_linear_149_462" x1="35.25" y1="2.25" x2="0.0241687" y2="4.01457" gradientUnits="userSpaceOnUse">
<stop stop-color="#8807EE"/>
<stop offset="0.328125" stop-color="#EF11B1"/>
<stop offset="0.661458" stop-color="#EF1111"/>
<stop offset="1" stop-color="#EF8911"/>
</linearGradient>
<linearGradient id="paint12_linear_149_462" x1="35.25" y1="2.25" x2="0.0241687" y2="4.01457" gradientUnits="userSpaceOnUse">
<stop stop-color="#8807EE"/>
<stop offset="0.328125" stop-color="#EF11B1"/>
<stop offset="0.661458" stop-color="#EF1111"/>
<stop offset="1" stop-color="#EF8911"/>
</linearGradient>
<linearGradient id="paint13_linear_149_462" x1="35.25" y1="2.25" x2="0.0241687" y2="4.01457" gradientUnits="userSpaceOnUse">
<stop stop-color="#8807EE"/>
<stop offset="0.328125" stop-color="#EF11B1"/>
<stop offset="0.661458" stop-color="#EF1111"/>
<stop offset="1" stop-color="#EF8911"/>
</linearGradient>
<linearGradient id="paint14_linear_149_462" x1="35.25" y1="2.25" x2="0.0241687" y2="4.01457" gradientUnits="userSpaceOnUse">
<stop stop-color="#8807EE"/>
<stop offset="0.328125" stop-color="#EF11B1"/>
<stop offset="0.661458" stop-color="#EF1111"/>
<stop offset="1" stop-color="#EF8911"/>
</linearGradient>
</defs>
<path d="M44.5977 10.293C44.6445 10.1758 44.7383 10.0469 44.8789 9.90625C45.0195 9.74219 45.1719 9.57812 45.3359 9.41406C45.5234 9.25 45.6992 9.09766 45.8633 8.95703C46.0508 8.79297 46.2148 8.67578 46.3555 8.60547C46.543 8.74609 46.6953 8.92188 46.8125 9.13281C46.9531 9.34375 47.1172 9.70703 47.3047 10.2227C47.4922 10.7148 47.7148 11.3945 47.9727 12.2617C48.2539 13.1289 48.6172 14.2891 49.0625 15.7422C49.5078 17.1953 50.0586 18.9883 50.7148 21.1211C51.3945 23.2305 52.2148 25.7734 53.1758 28.75C53.2695 28.6797 53.4336 28.3047 53.668 27.625C53.9258 26.9453 54.2305 26.1016 54.582 25.0938C54.9336 24.0625 55.3086 22.9258 55.707 21.6836C56.1289 20.418 56.5391 19.1523 56.9375 17.8867C57.3359 16.5977 57.7109 15.3789 58.0625 14.2305C58.4375 13.0586 58.7539 12.0508 59.0117 11.207C59.082 10.8789 59.1289 10.5625 59.1523 10.2578C59.1992 9.92969 59.2578 9.63672 59.3281 9.37891C59.3984 9.12109 59.5156 8.91016 59.6797 8.74609C59.8672 8.55859 60.1719 8.46484 60.5938 8.46484C60.9219 8.32422 61.2266 8.48828 61.5078 8.95703C61.7891 9.42578 62.0703 10.1055 62.3516 10.9961C62.6562 11.8867 62.9727 12.9297 63.3008 14.125C63.6289 15.2969 63.9922 16.5273 64.3906 17.8164C64.8125 19.1055 65.2695 20.3945 65.7617 21.6836C66.2773 22.9492 66.875 24.1094 67.5547 25.1641L72.5117 4.91406C72.5586 4.72656 72.6406 4.57422 72.7578 4.45703C72.8984 4.33984 73.0508 4.28125 73.2148 4.28125C73.4023 4.28125 73.5898 4.36328 73.7773 4.52734C73.9648 4.69141 74.1406 4.96094 74.3047 5.33594L69.3828 25.1641C69.3828 25.4688 69.3477 25.832 69.2773 26.2539C69.207 26.6523 69.1133 27.0508 68.9961 27.4492C68.8789 27.8242 68.7383 28.1523 68.5742 28.4336C68.4336 28.7148 68.2578 28.8906 68.0469 28.9609C67.8594 29.0078 67.6484 28.9258 67.4141 28.7148C67.1797 28.4805 66.9336 28.0352 66.6758 27.3789C65.3633 25.0586 64.1914 22.6445 63.1602 20.1367C62.1289 17.6055 61.1914 14.9336 60.3477 12.1211L55.8477 26.957C55.707 27.9883 55.4961 28.8203 55.2148 29.4531C54.957 30.0625 54.6641 30.5195 54.3359 30.8242C54.0312 31.1289 53.7148 31.3164 53.3867 31.3867C53.0586 31.457 52.7656 31.4688 52.5078 31.4219C52.25 31.3984 52.0508 31.3281 51.9102 31.2109C51.793 31.1172 51.7578 31.0469 51.8047 31C51.2656 30.2734 50.7969 29.4062 50.3984 28.3984C50.0234 27.3672 49.6719 26.2539 49.3438 25.0586C49.0391 23.8398 48.7344 22.5742 48.4297 21.2617C48.125 19.9258 47.7969 18.6133 47.4453 17.3242C47.1172 16.0117 46.7188 14.7578 46.25 13.5625C45.7812 12.3672 45.2305 11.2773 44.5977 10.293ZM86.5391 30.0859C86.4219 29.4766 86.3164 28.75 86.2227 27.9062C86.1523 27.0391 86.0703 26.1719 85.9766 25.3047C85.8828 24.4141 85.7656 23.582 85.625 22.8086C85.5078 22.0352 85.3203 21.4023 85.0625 20.9102C83.8672 23.3477 82.8125 25.2695 81.8984 26.6758C80.9844 28.0586 80.1758 29.0547 79.4727 29.6641C78.793 30.25 78.2188 30.5312 77.75 30.5078C77.2812 30.4844 76.8945 30.2734 76.5898 29.875C76.2852 29.4766 76.0625 28.9727 75.9219 28.3633C75.8047 27.7305 75.7227 27.1445 75.6758 26.6055C75.6758 26.0898 75.793 25.3633 76.0273 24.4258C76.2617 23.4883 76.5781 22.4688 76.9766 21.3672C77.375 20.2422 77.8438 19.1055 78.3828 17.957C78.9453 16.8086 79.543 15.7656 80.1758 14.8281C80.8086 13.8906 81.4648 13.1172 82.1445 12.5078C82.8242 11.8984 83.5039 11.5938 84.1836 11.5938C85.1914 11.4297 85.9297 11.6523 86.3984 12.2617C86.8906 12.8477 86.9844 13.8438 86.6797 15.25C86.6797 16.7969 86.7383 18.1211 86.8555 19.2227C86.9961 20.3242 87.1367 21.3789 87.2773 22.3867C87.4414 23.3945 87.582 24.4492 87.6992 25.5508C87.8398 26.6523 87.9102 27.9766 87.9102 29.5234C87.9102 29.8047 87.875 30.0508 87.8047 30.2617C87.7578 30.4492 87.4766 30.543 86.9609 30.543C86.8906 30.543 86.7969 30.4844 86.6797 30.3672C86.5859 30.25 86.5391 30.1562 86.5391 30.0859ZM84.6406 14.3711C84.3828 13.9961 84.0312 13.9609 83.5859 14.2656C83.1406 14.5703 82.6719 15.0742 82.1797 15.7773C81.6875 16.4805 81.1836 17.3242 80.668 18.3086C80.1523 19.293 79.6719 20.2891 79.2266 21.2969C78.7812 22.3047 78.3945 23.2656 78.0664 24.1797C77.7383 25.0703 77.5156 25.8086 77.3984 26.3945C77.3984 27.2383 77.5273 27.7188 77.7852 27.8359C78.043 27.9297 78.3594 27.7891 78.7344 27.4141C79.1094 27.0391 79.5312 26.5 80 25.7969C80.4922 25.0938 80.9609 24.3438 81.4062 23.5469C81.875 22.75 82.3086 21.9766 82.707 21.2266C83.1289 20.4766 83.457 19.8672 83.6914 19.3984C83.9023 18.9062 84.0664 18.4492 84.1836 18.0273C84.3008 17.6055 84.3945 17.207 84.4648 16.832C84.5586 16.4336 84.6055 16.0352 84.6055 15.6367C84.6289 15.2383 84.6406 14.8164 84.6406 14.3711ZM90.4766 29.207C90.6406 28.1289 90.7461 26.7812 90.793 25.1641C90.8633 23.5469 90.8867 21.8242 90.8633 19.9961C90.8633 18.168 90.8281 16.2812 90.7578 14.3359C90.6875 12.3906 90.5938 10.5508 90.4766 8.81641C90.3594 7.05859 90.2188 5.48828 90.0547 4.10547C89.9141 2.72266 89.7617 1.63281 89.5977 0.835938C89.8086 0.695312 89.9844 0.589844 90.125 0.519531C90.2891 0.425781 90.4766 0.378906 90.6875 0.378906C90.8516 0.378906 90.9922 0.414062 91.1094 0.484375C91.2266 0.53125 91.3203 0.648437 91.3906 0.835938C91.8594 5.42969 92.1758 10.0586 92.3398 14.7227C92.5273 19.3867 92.668 24.0273 92.7617 28.6445C92.7617 28.8555 92.7617 29.1484 92.7617 29.5234C92.7617 29.875 92.75 30.0625 92.7266 30.0859C92.3984 30.25 92.1055 30.332 91.8477 30.332C91.5898 30.3086 91.3555 30.2383 91.1445 30.1211C90.9336 29.9805 90.7695 29.8281 90.6523 29.6641C90.5352 29.5 90.4766 29.3477 90.4766 29.207ZM95.4336 29.207C95.5977 28.1289 95.7031 26.7812 95.75 25.1641C95.8203 23.5469 95.8438 21.8242 95.8203 19.9961C95.8203 18.168 95.7852 16.2812 95.7148 14.3359C95.6445 12.3906 95.5508 10.5508 95.4336 8.81641C95.3164 7.05859 95.1758 5.48828 95.0117 4.10547C94.8711 2.72266 94.7188 1.63281 94.5547 0.835938C94.7656 0.695312 94.9414 0.589844 95.082 0.519531C95.2461 0.425781 95.4336 0.378906 95.6445 0.378906C95.8086 0.378906 95.9492 0.414062 96.0664 0.484375C96.1836 0.53125 96.2773 0.648437 96.3477 0.835938C96.8164 5.42969 97.1328 10.0586 97.2969 14.7227C97.4844 19.3867 97.625 24.0273 97.7188 28.6445C97.7188 28.8555 97.7188 29.1484 97.7188 29.5234C97.7188 29.875 97.707 30.0625 97.6836 30.0859C97.3555 30.25 97.0625 30.332 96.8047 30.332C96.5469 30.3086 96.3125 30.2383 96.1016 30.1211C95.8906 29.9805 95.7266 29.8281 95.6094 29.6641C95.4922 29.5 95.4336 29.3477 95.4336 29.207ZM115.859 30.0859C115.93 29.7578 115.988 29.3359 116.035 28.8203C116.082 28.3047 116.141 27.625 116.211 26.7812C116.305 25.9375 116.398 24.8945 116.492 23.6523C116.609 22.4102 116.762 20.8984 116.949 19.1172C117.137 17.3359 117.348 15.25 117.582 12.8594C117.84 10.4453 118.168 7.64453 118.566 4.45703C118.59 4.22266 118.695 4.08203 118.883 4.03516C119.094 3.98828 119.281 3.96484 119.445 3.96484C119.703 3.96484 119.914 4.05859 120.078 4.24609C120.242 4.43359 120.383 4.64453 120.5 4.87891C120.641 5.11328 120.77 5.35937 120.887 5.61719C121.004 5.875 121.133 6.08594 121.273 6.25C121.508 6.78906 121.742 7.41016 121.977 8.11328C122.234 8.81641 122.504 9.56641 122.785 10.3633C123.066 11.1602 123.348 11.9687 123.629 12.7891C123.91 13.5859 124.191 14.3711 124.473 15.1445C124.754 15.8945 125.012 16.5977 125.246 17.2539C125.504 17.8867 125.738 18.4141 125.949 18.8359C126.207 18.8125 126.57 18.7188 127.039 18.5547C127.508 18.3672 128.012 18.1914 128.551 18.0273C129.09 17.8633 129.617 17.7344 130.133 17.6406C130.648 17.5469 131.082 17.5469 131.434 17.6406C131.785 17.7109 132.008 17.9102 132.102 18.2383C132.219 18.5664 132.137 19.082 131.855 19.7852C131.691 19.7852 131.539 19.7617 131.398 19.7148C131.258 19.6445 131.117 19.5859 130.977 19.5391C130.836 19.4688 130.684 19.4102 130.52 19.3633C130.379 19.293 130.215 19.2578 130.027 19.2578C129.91 19.2578 129.641 19.3281 129.219 19.4688C128.82 19.5859 128.387 19.7266 127.918 19.8906C127.449 20.0312 127.039 20.1836 126.688 20.3477C126.336 20.4883 126.16 20.5938 126.16 20.6641L128.586 30.1914L127.672 31.5273C127.273 30.8477 126.934 30.0742 126.652 29.207C126.395 28.3164 126.148 27.4375 125.914 26.5703C125.68 25.6797 125.434 24.8594 125.176 24.1094C124.941 23.3359 124.637 22.6914 124.262 22.1758C123.77 22.4102 123.184 22.6094 122.504 22.7734C121.824 22.9375 121.168 23.1484 120.535 23.4062C119.902 23.6406 119.352 23.9688 118.883 24.3906C118.438 24.7891 118.168 25.3398 118.074 26.043C118.027 26.3242 117.98 26.6992 117.934 27.168C117.91 27.6367 117.875 28.082 117.828 28.5039C117.758 29.0195 117.699 29.5469 117.652 30.0859H115.859ZM119.902 9.37891L119.832 9.97656C119.809 10.375 119.773 10.8437 119.727 11.3828C119.68 11.8984 119.621 12.4375 119.551 13C119.504 13.5391 119.469 13.9961 119.445 14.3711C119.328 15.6836 119.199 16.9844 119.059 18.2734C118.941 19.5391 118.883 20.8398 118.883 22.1758C119.328 22.1758 119.797 22.1172 120.289 22C120.805 21.8828 121.297 21.7305 121.766 21.543C122.234 21.332 122.656 21.0859 123.031 20.8047C123.43 20.5 123.734 20.1602 123.945 19.7852C123.758 18.9648 123.547 18.1211 123.312 17.2539C123.102 16.3633 122.867 15.4727 122.609 14.582C122.352 13.668 122.07 12.7773 121.766 11.9102C121.461 11.043 121.133 10.1992 120.781 9.37891C120.758 9.35547 120.676 9.30859 120.535 9.23828C120.395 9.14453 120.184 9.19141 119.902 9.37891ZM130.027 40.2461C130.285 37.7852 130.426 35.4414 130.449 33.2148C130.496 31.0117 130.484 28.832 130.414 26.6758C130.367 24.5195 130.285 22.3398 130.168 20.1367C130.051 17.9336 129.98 15.6016 129.957 13.1406C130.027 12.8125 130.109 12.5664 130.203 12.4023C130.32 12.2148 130.613 12.168 131.082 12.2617C131.574 12.3789 131.867 12.6602 131.961 13.1055C132.055 13.5273 132.078 14.0078 132.031 14.5469C131.984 15.0859 131.914 15.625 131.82 16.1641C131.727 16.7031 131.727 17.1367 131.82 17.4648C132.57 16.9258 133.367 16.3633 134.211 15.7773C135.055 15.1914 135.934 14.6758 136.848 14.2305C137.762 13.7617 138.711 13.4219 139.695 13.2109C140.68 12.9766 141.664 12.9648 142.648 13.1758C143.867 13.457 144.711 13.8789 145.18 14.4414C145.672 14.9805 145.859 15.6133 145.742 16.3398C145.648 17.043 145.32 17.8281 144.758 18.6953C144.195 19.5391 143.504 20.3945 142.684 21.2617C141.863 22.1289 140.949 22.9844 139.941 23.8281C138.934 24.6719 137.949 25.457 136.988 26.1836C136.027 26.8867 135.125 27.5078 134.281 28.0469C133.461 28.5859 132.805 28.9844 132.312 29.2422C132.289 29.5234 132.254 29.9688 132.207 30.5781C132.184 31.1641 132.148 31.832 132.102 32.582C132.078 33.332 132.043 34.1172 131.996 34.9375C131.973 35.7578 131.938 36.543 131.891 37.293C131.867 38.043 131.832 38.7109 131.785 39.2969C131.762 39.8828 131.75 40.3164 131.75 40.5977C131.703 40.6211 131.621 40.6445 131.504 40.668C131.387 40.6914 131.246 40.7031 131.082 40.7031C130.918 40.7266 130.766 40.7383 130.625 40.7383C130.484 40.7617 130.391 40.7617 130.344 40.7383C130.273 40.7383 130.203 40.668 130.133 40.5273C130.062 40.4102 130.027 40.3164 130.027 40.2461ZM131.996 20.9805C131.926 21.3086 131.902 21.7188 131.926 22.2109C131.973 22.6797 132.02 23.1836 132.066 23.7227C132.137 24.2383 132.207 24.7422 132.277 25.2344C132.348 25.7266 132.395 26.1484 132.418 26.5C133.309 25.8203 134.34 25.1289 135.512 24.4258C136.707 23.7227 137.855 22.9609 138.957 22.1406C140.082 21.3203 141.078 20.4062 141.945 19.3984C142.812 18.3906 143.387 17.2539 143.668 15.9883C143.762 15.4961 143.715 15.168 143.527 15.0039C143.363 14.8164 143.07 14.6875 142.648 14.6172C141.758 14.4297 140.738 14.5 139.59 14.8281C138.441 15.1328 137.328 15.5898 136.25 16.1992C135.195 16.8086 134.27 17.5352 133.473 18.3789C132.676 19.2227 132.184 20.0898 131.996 20.9805ZM147.395 40.2461C147.652 37.7852 147.793 35.4414 147.816 33.2148C147.863 31.0117 147.852 28.832 147.781 26.6758C147.734 24.5195 147.652 22.3398 147.535 20.1367C147.418 17.9336 147.348 15.6016 147.324 13.1406C147.395 12.8125 147.477 12.5664 147.57 12.4023C147.688 12.2148 147.98 12.168 148.449 12.2617C148.941 12.3789 149.234 12.6602 149.328 13.1055C149.422 13.5273 149.445 14.0078 149.398 14.5469C149.352 15.0859 149.281 15.625 149.188 16.1641C149.094 16.7031 149.094 17.1367 149.188 17.4648C149.938 16.9258 150.734 16.3633 151.578 15.7773C152.422 15.1914 153.301 14.6758 154.215 14.2305C155.129 13.7617 156.078 13.4219 157.062 13.2109C158.047 12.9766 159.031 12.9648 160.016 13.1758C161.234 13.457 162.078 13.8789 162.547 14.4414C163.039 14.9805 163.227 15.6133 163.109 16.3398C163.016 17.043 162.688 17.8281 162.125 18.6953C161.562 19.5391 160.871 20.3945 160.051 21.2617C159.23 22.1289 158.316 22.9844 157.309 23.8281C156.301 24.6719 155.316 25.457 154.355 26.1836C153.395 26.8867 152.492 27.5078 151.648 28.0469C150.828 28.5859 150.172 28.9844 149.68 29.2422C149.656 29.5234 149.621 29.9688 149.574 30.5781C149.551 31.1641 149.516 31.832 149.469 32.582C149.445 33.332 149.41 34.1172 149.363 34.9375C149.34 35.7578 149.305 36.543 149.258 37.293C149.234 38.043 149.199 38.7109 149.152 39.2969C149.129 39.8828 149.117 40.3164 149.117 40.5977C149.07 40.6211 148.988 40.6445 148.871 40.668C148.754 40.6914 148.613 40.7031 148.449 40.7031C148.285 40.7266 148.133 40.7383 147.992 40.7383C147.852 40.7617 147.758 40.7617 147.711 40.7383C147.641 40.7383 147.57 40.668 147.5 40.5273C147.43 40.4102 147.395 40.3164 147.395 40.2461ZM149.363 20.9805C149.293 21.3086 149.27 21.7188 149.293 22.2109C149.34 22.6797 149.387 23.1836 149.434 23.7227C149.504 24.2383 149.574 24.7422 149.645 25.2344C149.715 25.7266 149.762 26.1484 149.785 26.5C150.676 25.8203 151.707 25.1289 152.879 24.4258C154.074 23.7227 155.223 22.9609 156.324 22.1406C157.449 21.3203 158.445 20.4062 159.312 19.3984C160.18 18.3906 160.754 17.2539 161.035 15.9883C161.129 15.4961 161.082 15.168 160.895 15.0039C160.73 14.8164 160.438 14.6875 160.016 14.6172C159.125 14.4297 158.105 14.5 156.957 14.8281C155.809 15.1328 154.695 15.5898 153.617 16.1992C152.562 16.8086 151.637 17.5352 150.84 18.3789C150.043 19.2227 149.551 20.0898 149.363 20.9805Z" fill="url(#paint0_linear_149_462)"/>
<path d="M35.25 3C35.25 2.58579 34.9142 2.25 34.5 2.25H25.0714C24.6572 2.25 24.3214 2.58579 24.3214 3V7.28571C24.3214 7.69993 24.6572 8.03571 25.0714 8.03571H34.5C34.9142 8.03571 35.25 7.69993 35.25 7.28571V3Z" fill="url(#paint1_linear_149_462)"/>
<path d="M23.6786 3C23.6786 2.58579 23.3428 2.25 22.9286 2.25H13.5C13.0858 2.25 12.75 2.58579 12.75 3V7.28571C12.75 7.69993 13.0858 8.03571 13.5 8.03571H22.9286C23.3428 8.03571 23.6786 7.69993 23.6786 7.28571V3Z" fill="url(#paint2_linear_149_462)"/>
<path d="M35.25 28.7143C35.25 28.3001 34.9142 27.9643 34.5 27.9643H25.0714C24.6572 27.9643 24.3214 28.3001 24.3214 28.7143V33C24.3214 33.4142 24.6572 33.75 25.0714 33.75H34.5C34.9142 33.75 35.25 33.4142 35.25 33V28.7143Z" fill="url(#paint3_linear_149_462)"/>
<path d="M23.6786 28.7143C23.6786 28.3001 23.3428 27.9643 22.9286 27.9643H13.5C13.0858 27.9643 12.75 28.3001 12.75 28.7143V33C12.75 33.4142 13.0858 33.75 13.5 33.75H22.9286C23.3428 33.75 23.6786 33.4142 23.6786 33V28.7143Z" fill="url(#paint4_linear_149_462)"/>
<path d="M12.1071 28.7143C12.1071 28.3001 11.7714 27.9643 11.3571 27.9643H1.92857C1.51436 27.9643 1.17857 28.3001 1.17857 28.7143V33C1.17857 33.4142 1.51436 33.75 1.92857 33.75H11.3571C11.7714 33.75 12.1071 33.4142 12.1071 33V28.7143Z" fill="url(#paint5_linear_149_462)"/>
<path d="M35.25 15.8571C35.25 15.4429 34.9142 15.1071 34.5 15.1071H25.0714C24.6572 15.1071 24.3214 15.4429 24.3214 15.8571V20.1429C24.3214 20.5571 24.6572 20.8929 25.0714 20.8929H34.5C34.9142 20.8929 35.25 20.5571 35.25 20.1429V15.8571Z" fill="url(#paint6_linear_149_462)"/>
<path d="M23.6786 15.8571C23.6786 15.4429 23.3428 15.1071 22.9286 15.1071H13.5C13.0858 15.1071 12.75 15.4429 12.75 15.8571V20.1429C12.75 20.5571 13.0858 20.8929 13.5 20.8929H22.9286C23.3428 20.8929 23.6786 20.5571 23.6786 20.1429V15.8571Z" fill="url(#paint7_linear_149_462)"/>
<path d="M12.1071 15.8571C12.1071 15.4429 11.7714 15.1071 11.3571 15.1071H1.92857C1.51436 15.1071 1.17857 15.4429 1.17857 15.8571V20.1429C1.17857 20.5571 1.51436 20.8929 1.92857 20.8929H11.3571C11.7714 20.8929 12.1071 20.5571 12.1071 20.1429V15.8571Z" fill="url(#paint8_linear_149_462)"/>
<path d="M29.4643 9.42857C29.4643 9.01436 29.1285 8.67857 28.7143 8.67857H19.2857C18.8715 8.67857 18.5357 9.01436 18.5357 9.42857V13.7143C18.5357 14.1285 18.8715 14.4643 19.2857 14.4643H28.7143C29.1285 14.4643 29.4643 14.1285 29.4643 13.7143V9.42857Z" fill="url(#paint9_linear_149_462)"/>
<path d="M17.8929 9.42857C17.8929 9.01436 17.5571 8.67857 17.1429 8.67857H7.71428C7.30007 8.67857 6.96428 9.01436 6.96428 9.42857V13.7143C6.96428 14.1285 7.30007 14.4643 7.71429 14.4643H17.1429C17.5571 14.4643 17.8929 14.1285 17.8929 13.7143V9.42857Z" fill="url(#paint10_linear_149_462)"/>
<path d="M35.25 8.67857H30.8571C30.4429 8.67857 30.1071 9.01436 30.1071 9.42857V13.7143C30.1071 14.1285 30.4429 14.4643 30.8571 14.4643H35.25V8.67857Z" fill="url(#paint11_linear_149_462)"/>
<path d="M29.4643 22.2857C29.4643 21.8715 29.1285 21.5357 28.7143 21.5357H19.2857C18.8715 21.5357 18.5357 21.8715 18.5357 22.2857V26.5714C18.5357 26.9856 18.8715 27.3214 19.2857 27.3214H28.7143C29.1285 27.3214 29.4643 26.9856 29.4643 26.5714V22.2857Z" fill="url(#paint12_linear_149_462)"/>
<path d="M17.8929 22.2857C17.8929 21.8715 17.5571 21.5357 17.1429 21.5357H7.71428C7.30007 21.5357 6.96428 21.8715 6.96428 22.2857V26.5714C6.96428 26.9856 7.30007 27.3214 7.71429 27.3214H17.1429C17.5571 27.3214 17.8929 26.9856 17.8929 26.5714V22.2857Z" fill="url(#paint13_linear_149_462)"/>
<path d="M35.25 21.5357H30.8571C30.4429 21.5357 30.1071 21.8715 30.1071 22.2857V26.5714C30.1071 26.9856 30.4429 27.3214 30.8571 27.3214H35.25V21.5357Z" fill="url(#paint14_linear_149_462)"/>
</svg>
